<svg xmlns="http://www.w3.org/2000/svg" width="25" height="25" viewBox="0 0 25 25" fill="none">
  <path d="M12.7664 13.6484C13.3256 13.6484 13.779 13.2007 13.779 12.6484C13.779 12.0962 13.3256 11.6484 12.7664 11.6484C12.2072 11.6484 11.7539 12.0962 11.7539 12.6484C11.7539 13.2007 12.2072 13.6484 12.7664 13.6484Z" stroke="#4B5563" stroke-width="2" stroke-linecap="round" stroke-linejoin="round"/>
  <path d="M12.7664 6.64844C13.3256 6.64844 13.779 6.20072 13.779 5.64844C13.779 5.09615 13.3256 4.64844 12.7664 4.64844C12.2072 4.64844 11.7539 5.09615 11.7539 5.64844C11.7539 6.20072 12.2072 6.64844 12.7664 6.64844Z" stroke="#4B5563" stroke-width="2" stroke-linecap="round" stroke-linejoin="round"/>
  <path d="M12.7664 20.6484C13.3256 20.6484 13.779 20.2007 13.779 19.6484C13.779 19.0962 13.3256 18.6484 12.7664 18.6484C12.2072 18.6484 11.7539 19.0962 11.7539 19.6484C11.7539 20.2007 12.2072 20.6484 12.7664 20.6484Z" stroke="#4B5563" stroke-width="2" stroke-linecap="round" stroke-linejoin="round"/>
</svg>