<svg xmlns="http://www.w3.org/2000/svg" width="21" height="21" viewBox="0 0 21 21" fill="none">
  <path fill-rule="evenodd" clip-rule="evenodd" d="M6.26525 7.65771C6.45265 7.46087 6.70679 7.35029 6.97178 7.35029C7.23677 7.35029 7.49091 7.46087 7.67831 7.65771L10.9691 11.1154L14.26 7.65771C14.3521 7.55743 14.4624 7.47743 14.5843 7.4224C14.7063 7.36737 14.8374 7.33841 14.9701 7.3372C15.1028 7.33599 15.2344 7.36255 15.3572 7.41535C15.48 7.46814 15.5916 7.54611 15.6854 7.6447C15.7792 7.74328 15.8534 7.86052 15.9037 7.98956C15.9539 8.1186 15.9792 8.25686 15.9781 8.39628C15.9769 8.5357 15.9494 8.67348 15.897 8.80159C15.8446 8.92969 15.7685 9.04555 15.673 9.14241L11.6757 13.3424C11.4883 13.5393 11.2341 13.6498 10.9691 13.6498C10.7041 13.6498 10.45 13.5393 10.2626 13.3424L6.26525 9.14241C6.0779 8.94551 5.97266 8.67848 5.97266 8.40006C5.97266 8.12164 6.0779 7.85462 6.26525 7.65771Z" fill="#4B5563"/>
</svg>