<svg xmlns="http://www.w3.org/2000/svg" width="20" height="20" viewBox="0 0 20 20">
    <defs>
        <clipPath id="ja5d20z8la">
            <path data-name="Rectangle 4436" style="fill:#032541" d="M0 0h20v20H0z"/>
        </clipPath>
    </defs>
    <g data-name="more-icn" style="clip-path:url(#ja5d20z8la)">
        <path data-name="Path 25411" d="M23.155 23a1.492 1.492 0 0 1-1.1-.459 1.513 1.513 0 0 1-.455-1.1 1.492 1.492 0 0 1 .459-1.1 1.512 1.512 0 0 1 1.1-.455 1.492 1.492 0 0 1 1.1.459 1.512 1.512 0 0 1 .455 1.1 1.492 1.492 0 0 1-.459 1.1 1.512 1.512 0 0 1-1.1.455zm0-5.941a1.492 1.492 0 0 1-1.1-.459 1.513 1.513 0 0 1-.455-1.1 1.492 1.492 0 0 1 .459-1.1 1.512 1.512 0 0 1 1.1-.455 1.492 1.492 0 0 1 1.1.459 1.512 1.512 0 0 1 .455 1.1 1.492 1.492 0 0 1-.459 1.1 1.512 1.512 0 0 1-1.1.455zm0-5.941a1.492 1.492 0 0 1-1.1-.459 1.512 1.512 0 0 1-.455-1.1 1.492 1.492 0 0 1 .459-1.1A1.512 1.512 0 0 1 23.164 8a1.492 1.492 0 0 1 1.1.459 1.512 1.512 0 0 1 .455 1.1 1.492 1.492 0 0 1-.459 1.1 1.512 1.512 0 0 1-1.105.46z" transform="translate(-13.6 -5)" style="fill:#032541"/>
    </g>
</svg>
