<svg xmlns="http://www.w3.org/2000/svg" width="34" height="34" viewBox="0 0 34 34">
    <defs>
        <clipPath id="v3s4erboma">
            <path data-name="Rectangle 3701" style="fill:#032541" d="M0 0h24v24H0z"/>
        </clipPath>
    </defs>
    <circle data-name="Ellipse 1505" cx="17" cy="17" r="17" style="fill:#f5f6f7"/>
    <g style="clip-path:url(#v3s4erboma)">
        <path d="M164.637 80.8a9.219 9.219 0 0 0-7.137 9.06.821.821 0 1 0 1.641 0 7.388 7.388 0 1 1 14.77 0 .821.821 0 1 0 1.641 0 9.219 9.219 0 0 0-7.137-9.06 5.36 5.36 0 0 0 3.33-5 5.221 5.221 0 1 0-10.438 0 5.36 5.36 0 0 0 3.33 5zm1.889-8.664a3.671 3.671 0 1 1-3.578 3.669 3.626 3.626 0 0 1 3.578-3.667z" transform="translate(-149.616 -63.669)" style="fill-rule:evenodd;fill:#032541" data-name="Mask Group 706"/>
    </g>
</svg>
